# xmcd
#
# Track frame offsets:
#	150
#	11689
#	24108
#	36350
#	50375
#	61706
#	74767
#	92350
#	108045
#	124031
#	139657
#	152685
#	167314
#	178197
#	197342
#	215100
#	228252
#	238753
#	249459
#	264689
#
# Disc length: 3688 seconds
#
# Revision: 0
# Processed by: cddbd v1.5.2PL0 Copyright (c) Steve Scherf et al.
# Submitted via: EasyCDDAExtractor 11.0.3.1
#
DISCID=060e6614
DTITLE=Various Artist - Pure Country [cd2]
DYEAR=2007
DGENRE=Country
TTITLE0=Billie Jo Spears - Stand by Your Man
TTITLE1=Glen Campbell and Rita Coolidge - Somethin' 'bout You Baby I Like
TTITLE2=Willie Nelson and Shirley Collie - Willingly
TTITLE3=Lacy J Dalton - Still Crazy After All These Years
TTITLE4=Crystal Gayle - Hello I Love You
TTITLE5=Dr. Hook - A Little Bit More (1996 Digital Remaster)
TTITLE6=Gail Davies - The Other Side of Love
TTITLE7=Juice Newton - Lay Back in the Arms of Someone
TTITLE8=Kenny Rogers and Dottie West - Just the Way You Are
TTITLE9=Cleve Francis and Patti Austin - We Fell in Love Anyway
TTITLE10=Barbara Mandrell - I Wish that I Could Fall in Love Today
TTITLE11=Dean Miller - Dreams
TTITLE12=George Jones - Ain't it Funny What A Fool Will Do
TTITLE13=Lee Greenwood/lacy J. Dalton - Form Now on
TTITLE14=Suzy Bogguss - Someday Soon
TTITLE15=Tanya Tucker - One Love at A Time
TTITLE16=Wanda Jackson - Fancy Satin Pillows
TTITLE17=Jessi Colter - It's Morning (and I Still Love You)
TTITLE18=Cristy Lane - Simple Little Words
TTITLE19=Faron Young - Goin' Steady
EXTD=
EXTT0=
EXTT1=
EXTT2=
EXTT3=
EXTT4=
EXTT5=
EXTT6=
EXTT7=
EXTT8=
EXTT9=
EXTT10=
EXTT11=
EXTT12=
EXTT13=
EXTT14=
EXTT15=
EXTT16=
EXTT17=
EXTT18=
EXTT19=
PLAYORDER=
